<svg width="106" height="52" viewBox="0 0 106 52" fill="none" xmlns="http://www.w3.org/2000/svg">
<path d="M40.8523 16.2642H42.4114L43.3985 19.0659L44.3957 16.2642H45.9397L44.4666 20.1227L45.5499 22.8447L47.9949 16.2393H49.8223L46.3649 24.749H44.9171L43.3985 21.1796L41.89 24.749H40.4422L37 16.2393H38.8021L41.2471 22.8447L42.3304 20.1227L40.8573 16.2642H40.8523Z" fill="white"/>
<path d="M56.4739 24.749H54.8439V21.2793C54.8439 20.8008 54.7477 20.4418 54.5554 20.2025C54.363 19.9682 54.1049 19.8486 53.7708 19.8486C53.5784 19.8486 53.3709 19.9034 53.1481 20.0131C52.9254 20.1228 52.733 20.2723 52.5559 20.4618C52.3837 20.6512 52.2521 20.8755 52.161 21.1248V24.749H50.5411V16H52.161V19.6891C52.4141 19.2952 52.7381 18.9861 53.1431 18.7668C53.543 18.5474 53.9834 18.4328 54.4643 18.4328C54.8794 18.4328 55.2185 18.4976 55.4817 18.6322C55.745 18.7668 55.9475 18.9512 56.0892 19.1905C56.2309 19.4298 56.3322 19.6891 56.3879 19.9782C56.4435 20.2673 56.4739 20.5615 56.4739 20.8606V24.749Z" fill="white"/>
<path d="M57.8964 17.5803V16H59.5162V17.5803H57.8964ZM57.8964 24.749V18.4677H59.5162V24.749H57.8964Z" fill="white"/>
<path d="M64.8213 24.4351C64.6745 24.4999 64.5074 24.5647 64.3151 24.6345C64.1227 24.7043 63.9152 24.7591 63.6924 24.804C63.4697 24.8489 63.2419 24.8688 63.0192 24.8688C62.7104 24.8688 62.432 24.8189 62.1789 24.7143C61.9258 24.6096 61.7283 24.4451 61.5765 24.2207C61.4246 23.9964 61.3487 23.7023 61.3487 23.3383V19.754H60.5236V18.5326H61.3487V16.4937H62.9939V18.5326H64.3303V19.754H62.9939V22.795C63.004 23.0093 63.0647 23.1639 63.1761 23.2636C63.2875 23.3633 63.4343 23.4131 63.6165 23.4131C63.7785 23.4131 63.9405 23.3832 64.1025 23.3234C64.2645 23.2636 64.3961 23.2087 64.5024 23.1639L64.8162 24.4451L64.8213 24.4351Z" fill="white"/>
<path d="M68.547 24.8685C68.0357 24.8685 67.5751 24.7838 67.16 24.6143C66.7449 24.4448 66.3956 24.2105 66.102 23.9163C65.8084 23.6222 65.5856 23.2832 65.4338 22.9043C65.2819 22.5255 65.2009 22.1167 65.2009 21.683C65.2009 21.0997 65.3376 20.5613 65.6059 20.0628C65.8792 19.5692 66.264 19.1754 66.7601 18.8763C67.2612 18.5822 67.8585 18.4326 68.5571 18.4326C69.2557 18.4326 69.8378 18.5822 70.3339 18.8763C70.83 19.1704 71.2096 19.5643 71.4779 20.0428C71.7462 20.5264 71.8778 21.0499 71.8778 21.6232C71.8778 21.7278 71.8778 21.8226 71.8677 21.9123C71.8576 22.002 71.8525 22.0818 71.8424 22.1416H66.9271C66.9524 22.4706 67.0435 22.7498 67.2005 22.9791C67.3574 23.2084 67.5599 23.3879 67.8079 23.5125C68.0559 23.6372 68.3192 23.702 68.5925 23.702C68.9266 23.702 69.2354 23.6222 69.524 23.4677C69.8125 23.3131 70.0099 23.1038 70.1162 22.8395L71.5032 23.2234C71.3564 23.5425 71.1438 23.8266 70.8604 24.0759C70.5769 24.3251 70.2377 24.5146 69.8479 24.6591C69.4582 24.8037 69.0228 24.8685 68.547 24.8685ZM66.8815 21.1396H70.2175C70.1871 20.8255 70.096 20.5563 69.9441 20.327C69.7923 20.0977 69.5948 19.9182 69.3518 19.7886C69.1089 19.659 68.8355 19.5942 68.5369 19.5942C68.2382 19.5942 67.98 19.659 67.737 19.7886C67.4991 19.9182 67.3017 20.0977 67.1549 20.327C67.003 20.5563 66.9119 20.8305 66.8815 21.1396Z" fill="white"/>
<path d="M76.5199 24.7488V16.239H78.2005V23.2981H82.6045V24.7488H76.5199Z" fill="white"/>
<path d="M83.4702 17.5803V16H85.0901V17.5803H83.4702ZM83.4702 24.749V18.4677H85.0901V24.749H83.4702Z" fill="white"/>
<path d="M89.5194 24.8686C88.998 24.8686 88.5374 24.7839 88.1273 24.6094C87.7173 24.4349 87.368 24.2006 87.0744 23.8965C86.7808 23.5924 86.5631 23.2534 86.4113 22.8695C86.2594 22.4857 86.1885 22.0819 86.1885 21.6532C86.1885 21.2244 86.2645 20.7957 86.4113 20.4069C86.5581 20.018 86.7808 19.679 87.0693 19.3799C87.3579 19.0858 87.7072 18.8515 88.1223 18.682C88.5374 18.5125 88.998 18.4277 89.5093 18.4277C90.0206 18.4277 90.5065 18.5125 90.9165 18.682C91.3266 18.8515 91.6759 19.0858 91.9695 19.3799C92.2631 19.674 92.4858 20.018 92.6377 20.4069C92.7895 20.7957 92.8705 21.2095 92.8705 21.6532C92.8705 22.0968 92.7946 22.4857 92.6377 22.8695C92.4858 23.2534 92.258 23.5924 91.9695 23.8965C91.6809 24.2006 91.3266 24.4349 90.9165 24.6094C90.5065 24.7839 90.0408 24.8686 89.5245 24.8686H89.5194ZM87.854 21.6581C87.854 22.0121 87.9248 22.3262 88.0716 22.6103C88.2184 22.8945 88.4209 23.1138 88.674 23.2684C88.9271 23.4229 89.2106 23.5027 89.5194 23.5027C89.8282 23.5027 90.1066 23.4229 90.3597 23.2634C90.6128 23.1039 90.8102 22.8845 90.9621 22.6053C91.114 22.3262 91.1899 22.0071 91.1899 21.6482C91.1899 21.2892 91.114 20.9802 90.9621 20.701C90.8102 20.4218 90.6128 20.2025 90.3597 20.0429C90.1066 19.8834 89.8231 19.8036 89.5093 19.8036C89.1954 19.8036 88.9221 19.8834 88.669 20.0429C88.4159 20.2025 88.2184 20.4218 88.0716 20.701C87.9248 20.9802 87.854 21.2992 87.854 21.6581Z" fill="white"/>
<path d="M99.8714 24.749H98.2414V21.2793C98.2414 20.7808 98.1553 20.4218 97.9782 20.1925C97.806 19.9632 97.5529 19.8485 97.229 19.8485C97.0113 19.8485 96.7886 19.9034 96.5658 20.013C96.3431 20.1227 96.1457 20.2723 95.9685 20.4617C95.7964 20.6511 95.6597 20.8755 95.5585 21.1247V24.749H93.9386V18.5274H95.4117V19.689C95.5737 19.4198 95.7812 19.1955 96.0343 19.011C96.2874 18.8315 96.576 18.687 96.8999 18.5823C97.2239 18.4776 97.5732 18.4277 97.9478 18.4277C98.3477 18.4277 98.6717 18.4975 98.9298 18.6371C99.188 18.7767 99.3804 18.9611 99.512 19.2004C99.6436 19.4397 99.7398 19.699 99.7904 19.9881C99.841 20.2772 99.8714 20.5664 99.8714 20.8605V24.749Z" fill="white"/>
<path d="M41.464 28.7483H43.1699L46.3438 37.258H44.6177L43.8988 35.1393H40.7249L40.001 37.258H38.2748L41.464 28.7483ZM43.504 33.9728L42.3144 30.4632L41.1197 33.9728H43.504Z" fill="white"/>
<path d="M49.4469 37.3728C49.0268 37.3728 48.637 37.2881 48.2827 37.1186C47.9283 36.9491 47.6296 36.7198 47.3765 36.4306C47.1234 36.1415 46.9311 35.8025 46.7944 35.4186C46.6577 35.0348 46.5869 34.626 46.5869 34.1923C46.5869 33.7336 46.6577 33.3099 46.7995 32.921C46.9412 32.5322 47.1437 32.1832 47.4069 31.8841C47.6701 31.585 47.984 31.3507 48.3434 31.1862C48.7028 31.0217 49.1027 30.9419 49.5431 30.9419C50.0392 30.9419 50.4695 31.0516 50.8441 31.2659C51.2187 31.4803 51.5275 31.7744 51.7704 32.1383V31.0366H53.1929V36.974C53.1929 37.5922 53.041 38.1206 52.7322 38.5643C52.4235 39.003 52.0084 39.342 51.4768 39.5763C50.9504 39.8106 50.3429 39.9252 49.6494 39.9252C48.9559 39.9252 48.3738 39.8106 47.8979 39.5863C47.417 39.3569 47.0121 39.0379 46.6678 38.6191L47.5537 37.7666C47.7967 38.0608 48.1055 38.2951 48.475 38.4596C48.8445 38.6291 49.2343 38.7088 49.6494 38.7088C49.9886 38.7088 50.3075 38.649 50.6011 38.5344C50.8947 38.4197 51.1225 38.2353 51.2946 37.991C51.4667 37.7467 51.5477 37.4277 51.5477 37.0288V36.2362C51.3452 36.5951 51.0516 36.8743 50.6669 37.0687C50.2822 37.2631 49.8722 37.3628 49.4419 37.3628L49.4469 37.3728ZM49.9936 36.0916C50.1809 36.0916 50.3531 36.0617 50.51 36.0069C50.6669 35.952 50.8137 35.8723 50.9554 35.7776C51.0921 35.6828 51.2136 35.5682 51.3199 35.4336C51.4262 35.299 51.5022 35.1644 51.5528 35.0198V33.5292C51.4617 33.28 51.33 33.0656 51.1579 32.8811C50.9858 32.6967 50.7884 32.5521 50.5758 32.4524C50.3632 32.3527 50.1354 32.3029 49.9025 32.3029C49.6697 32.3029 49.4318 32.3527 49.2293 32.4574C49.0217 32.5621 48.8446 32.7067 48.7028 32.8911C48.556 33.0756 48.4446 33.2849 48.3637 33.5143C48.2827 33.7436 48.2422 33.9879 48.2422 34.2371C48.2422 34.4864 48.2877 34.7356 48.3839 34.96C48.4801 35.1843 48.6016 35.3837 48.7636 35.5532C48.9205 35.7277 49.1128 35.8573 49.3305 35.952C49.5482 36.0467 49.776 36.0916 50.0139 36.0916H49.9936Z" fill="white"/>
<path d="M57.6272 37.3729C57.116 37.3729 56.6553 37.2882 56.2402 37.1187C55.8251 36.9492 55.4758 36.7149 55.1822 36.4207C54.8886 36.1266 54.6659 35.7876 54.514 35.4087C54.3622 35.0299 54.2812 34.6211 54.2812 34.1874C54.2812 33.6041 54.4179 33.0657 54.6862 32.5672C54.9595 32.0736 55.3442 31.6798 55.8403 31.3807C56.3415 31.0866 56.9388 30.937 57.6374 30.937C58.3359 30.937 58.9181 31.0866 59.4142 31.3807C59.9102 31.6748 60.2899 32.0687 60.5582 32.5472C60.8265 33.0308 60.9581 33.5542 60.9581 34.1275C60.9581 34.2322 60.9581 34.327 60.948 34.4167C60.9379 34.5064 60.9328 34.5862 60.9227 34.646H56.0074C56.0327 34.975 56.1238 35.2542 56.2807 35.4835C56.4376 35.7128 56.6401 35.8923 56.8882 36.0169C57.1362 36.1416 57.3994 36.2064 57.6728 36.2064C58.0069 36.2064 58.3157 36.1266 58.6042 35.9721C58.8928 35.8175 59.0902 35.6082 59.1965 35.3439L60.5835 35.7278C60.4367 36.0469 60.2241 36.331 59.9406 36.5803C59.6571 36.8295 59.318 37.019 58.9282 37.1635C58.5384 37.3081 58.1031 37.3729 57.6272 37.3729ZM55.9618 33.644H59.2977C59.2674 33.3299 59.1762 33.0607 59.0244 32.8314C58.8725 32.6021 58.6751 32.4226 58.4321 32.293C58.1891 32.1634 57.9158 32.0986 57.6171 32.0986C57.3185 32.0986 57.0603 32.1634 56.8173 32.293C56.5794 32.4226 56.382 32.6021 56.2352 32.8314C56.0833 33.0607 55.9922 33.3349 55.9618 33.644Z" fill="white"/>
<path d="M67.8831 37.2534H66.2531V33.7837C66.2531 33.2851 66.167 32.9262 65.9899 32.6969C65.8178 32.4676 65.5647 32.3529 65.2407 32.3529C65.023 32.3529 64.8003 32.4077 64.5775 32.5174C64.3548 32.6271 64.1574 32.7767 63.9802 32.9661C63.8081 33.1555 63.6714 33.3799 63.5702 33.6291V37.2534H61.9503V31.0318H63.4234V32.1934C63.5854 31.9242 63.7929 31.6999 64.046 31.5154C64.2991 31.3359 64.5877 31.1914 64.9116 31.0867C65.2356 30.982 65.5849 30.9321 65.9595 30.9321C66.3594 30.9321 66.6834 31.0019 66.9415 31.1415C67.1997 31.2811 67.3921 31.4655 67.5237 31.7048C67.6553 31.9441 67.7515 32.2034 67.8021 32.4925C67.8527 32.7816 67.8831 33.0708 67.8831 33.3649V37.2534Z" fill="white"/>
<path d="M72.277 37.3729C71.7505 37.3729 71.2798 37.2882 70.8697 37.1187C70.4597 36.9492 70.1104 36.7099 69.8168 36.4058C69.5232 36.1017 69.3005 35.7577 69.1486 35.3689C68.9968 34.98 68.9158 34.5762 68.9158 34.1475C68.9158 33.5692 69.0474 33.0358 69.3157 32.5472C69.584 32.0587 69.9687 31.6649 70.4698 31.3757C70.971 31.0816 71.5683 30.937 72.2568 30.937C72.9452 30.937 73.5375 31.0866 74.0336 31.3807C74.5296 31.6748 74.8941 32.0637 75.127 32.5422L73.5476 33.0208C73.4109 32.7915 73.2287 32.612 73.0009 32.4874C72.7731 32.3628 72.52 32.303 72.2365 32.303C71.9378 32.303 71.6594 32.3777 71.4114 32.5323C71.1583 32.6868 70.9609 32.8962 70.809 33.1754C70.6571 33.4496 70.5812 33.7736 70.5812 34.1525C70.5812 34.5313 70.6571 34.8354 70.809 35.1146C70.9609 35.3988 71.1583 35.6181 71.4114 35.7727C71.6645 35.9272 71.9429 36.007 72.2517 36.007C72.4542 36.007 72.6415 35.9771 72.8136 35.9122C72.9857 35.8474 73.1376 35.7577 73.2844 35.643C73.4261 35.5284 73.5273 35.4038 73.5932 35.2642L75.1725 35.7428C75.0257 36.0518 74.8131 36.336 74.5347 36.5803C74.2563 36.8295 73.9273 37.019 73.5476 37.1635C73.1679 37.3081 72.7478 37.3729 72.277 37.3729Z" fill="white"/>
<path d="M76.1849 38.4795C76.3317 38.5095 76.4684 38.5394 76.5949 38.5593C76.7215 38.5792 76.8278 38.5942 76.9189 38.5992C77.0707 38.5992 77.2024 38.5593 77.3036 38.4845C77.4048 38.4097 77.5061 38.2751 77.6023 38.0807C77.6985 37.8863 77.7997 37.6171 77.906 37.2731L75.3851 31.0366H77.0758L78.7919 35.643L80.3004 31.0366H81.8595L79.1816 38.5095C79.0855 38.7886 78.9336 39.0379 78.7362 39.2672C78.5388 39.4915 78.2907 39.671 78.0022 39.8056C77.7086 39.9352 77.3795 40 77.0049 40C76.8733 40 76.7468 39.9901 76.6152 39.9701C76.4835 39.9502 76.3418 39.9103 76.1899 39.8555V38.4795H76.1849Z" fill="white"/>
<path d="M14.9964 0C6.71786 0 0 6.63684 0 14.9158C0 17.3789 0.610714 19.6368 1.62857 21.6895L14.9964 52L28.3643 21.6211C29.3821 19.5684 29.9929 17.3105 29.9929 14.8474C29.9929 6.63684 23.275 0 14.9964 0Z" fill="white"/>
<path d="M14.7929 7.18433C18.3214 7.11591 21.7143 9.44223 22.5286 12.5896C23.275 15.3264 22.1214 18.8843 20.4929 19.2264C20.0179 19.2949 19.5429 19.0896 19.1357 18.8843C19.3393 19.2949 20.2214 20.5264 20.2214 21.5528C20.2214 22.5791 19.2714 23.4685 17.9143 23.4685C16.5571 23.4685 15.0643 22.9212 14.7929 22.9212C14.5214 22.9212 13.0286 23.4685 11.6714 23.4685C10.3143 23.4685 9.36429 22.5791 9.36429 21.5528C9.36429 20.5264 10.2464 19.2949 10.45 18.8843C10.0429 19.0896 9.5 19.2264 9.09286 19.0896C7.46429 18.6106 6.58214 14.5054 7.93929 11.5633C9.09286 8.82644 11.9429 7.25275 14.7929 7.18433Z" fill="#D1D1D1"/>
<path d="M14.7929 26.8896C16.0822 26.8896 17.1 25.3159 16.7607 24.4948C16.4215 23.7422 15.0643 23.7422 14.7929 23.7422C14.4536 23.7422 13.1643 23.7422 12.8929 24.4264C12.4857 25.2475 13.5036 26.8896 14.7929 26.8896Z" fill="#D1D1D1"/>
<path fill-rule="evenodd" clip-rule="evenodd" d="M12.2821 14.7789C12.0786 14.5053 11.9428 14.2316 11.7393 14.0263C10.8571 14.1631 10.5178 13.9579 10.1107 13.4105C9.63571 13.3421 9.43213 13.3421 9.16071 13.3421C10.1107 11.8368 12.8928 12.8631 12.2821 14.7789Z" fill="#282828"/>
<path fill-rule="evenodd" clip-rule="evenodd" d="M19.2036 13.4105C18.8643 14.0263 18.4572 14.1631 17.575 14.0263C17.3714 14.2316 17.2357 14.5052 17.0322 14.7789C16.4214 12.7947 19.1357 11.7684 20.1536 13.2737C19.8822 13.3421 19.6786 13.3421 19.2036 13.4105Z" fill="#282828"/>
<path fill-rule="evenodd" clip-rule="evenodd" d="M16.15 19.2947C15.8786 19.2947 15.2 19.6368 14.7929 19.6368C14.3857 19.6368 13.7072 19.2947 13.4357 19.2947C13.1643 19.2947 12.8929 19.4315 12.8929 19.7052C12.8929 20.4578 14.4536 20.8684 14.7929 22.0999C15.1322 20.8684 16.6929 20.4578 16.6929 19.7052C16.6929 19.3631 16.4215 19.2947 16.15 19.2947Z" fill="#282828"/>
</svg>
